# xmcd
#
# Track frame offsets:
#	150
#	18804
#	34628
#
# Disc length: 610 seconds
#
# Revision: 0
# Processed by: cddbd v1.5.1PL2 Copyright (c) Steve Scherf et al.
# Submitted via: dBpowerAMP V4.0
#
DISCID=14026003
DTITLE=Uli B. und die Verebbeliner - Gail-Gail-Gailingen
DYEAR=2000
DGENRE=Undefined
TTITLE0=Gail-Gail-Gail-Gail-Gailingen (Grand Prix Edit)
TTITLE1=Das selbstdestruktive Couplet ("Live-Version")
TTITLE2=Das ul(t)imative Weihnachtslied
EXTD=Titlesong won a contest in Nuremberg.\nJohannes Walter
EXTT0=
EXTT1=
EXTT2=
PLAYORDER=
